<?xml version="1.0" standalone="no"?>
<!DOCTYPE svg PUBLIC "-//W3C//DTD SVG 20010904//EN"
 "http://www.w3.org/TR/2001/REC-SVG-20010904/DTD/svg10.dtd">
<svg version="1.0" xmlns="http://www.w3.org/2000/svg"
 width="1600.000000pt" height="867.000000pt" viewBox="0 0 1600.000000 867.000000"
 preserveAspectRatio="xMidYMid meet">
<metadata>
Created by potrace 1.15, written by Peter Selinger 2001-2017
</metadata>
<g transform="translate(0.000000,867.000000) scale(0.100000,-0.100000)"
fill="#000000" stroke="none">
<path d="M1409 6576 c-2 -2 -3 -954 -1 -2115 l2 -2111 2150 0 2150 0 -2 2113
-3 2112 -2146 3 c-1180 1 -2148 0 -2150 -2z m3591 -2111 l0 -1415 -435 0 -435
0 0 1415 0 1415 435 0 435 0 0 -1415z m-2032 803 c9 -9 12 -267 12 -1102 0
-600 -4 -1097 -8 -1104 -7 -10 -101 -12 -438 -10 l-429 3 -3 1100 c-1 605 0
1106 3 1113 6 17 845 18 863 0z m1022 -1453 l0 -765 -435 0 -435 0 0 765 0
765 435 0 435 0 0 -765z"/>
<path d="M4345 5658 c-3 -7 -4 -548 -3 -1203 l3 -1190 223 -3 222 -2 0 1205 0
1205 -220 0 c-167 0 -222 -3 -225 -12z"/>
<path d="M2310 4160 l0 -900 225 0 225 0 0 900 0 900 -225 0 -225 0 0 -900z"/>
<path d="M3330 3815 l0 -555 223 2 222 3 0 550 0 550 -222 3 -223 2 0 -555z"/>
<path d="M7425 5961 c-115 -27 -151 -39 -235 -78 -191 -88 -362 -242 -458
-413 -110 -195 -155 -418 -132 -644 15 -145 33 -216 86 -334 13 -29 24 -55 24
-57 0 -3 21 -37 46 -77 115 -179 327 -345 527 -413 186 -62 439 -73 617 -26
292 78 519 290 610 571 42 130 45 155 45 325 0 94 -3 178 -7 188 -7 16 -37 17
-436 17 -319 0 -431 -3 -440 -12 -13 -13 -18 -341 -6 -372 5 -14 35 -16 225
-16 247 0 236 4 200 -76 -62 -137 -216 -214 -428 -214 -294 0 -508 175 -567
463 -53 256 45 525 236 649 80 52 152 78 268 95 87 13 117 13 175 3 76 -13
176 -49 241 -86 l40 -24 46 48 c86 89 228 255 228 267 0 17 -117 98 -201 138
-41 20 -119 48 -174 63 -86 23 -124 27 -275 30 -145 3 -189 0 -255 -15z"/>
<path d="M12015 5967 c-3 -7 -4 -94 -3 -192 l3 -180 225 0 225 0 0 190 0 190
-223 3 c-175 2 -224 0 -227 -11z"/>
<path d="M9428 5450 c-297 -53 -531 -260 -604 -536 -41 -155 -36 -377 12 -520
66 -197 178 -327 364 -426 82 -43 132 -58 245 -72 94 -13 197 -3 282 25 51 16
161 86 174 110 18 35 28 20 31 -48 2 -38 6 -67 11 -65 4 1 106 2 227 2 l220 0
-2 753 -3 752 -227 3 -227 2 -3 -65 -3 -65 -25 22 c-83 76 -205 123 -335 131
-49 3 -111 2 -137 -3z m304 -420 c199 -75 276 -334 168 -563 -26 -56 -100
-123 -162 -148 -58 -24 -206 -25 -268 -2 -99 36 -166 104 -206 208 -27 70 -27
230 0 300 37 97 108 169 203 205 69 26 196 26 265 0z"/>
<path d="M11590 5451 c-68 -9 -169 -44 -219 -75 -78 -50 -164 -155 -202 -246
-13 -33 -14 -25 -19 130 l-5 165 -232 3 -233 2 0 -754 c0 -694 1 -755 17 -758
9 -2 114 -2 234 0 l218 3 3 357 3 357 39 80 c93 191 257 292 481 299 l100 2 3
209 c1 115 -1 212 -6 217 -12 12 -119 17 -182 9z"/>
<path d="M13425 5453 c-199 -27 -423 -152 -538 -298 -57 -73 -111 -183 -138
-280 -17 -62 -22 -107 -22 -205 0 -225 68 -395 214 -537 141 -137 293 -209
499 -237 77 -10 120 -10 215 0 158 16 202 28 310 80 82 39 200 127 193 143 -2
3 -58 59 -124 123 l-122 118 -58 -26 c-93 -41 -162 -56 -259 -57 -140 -1 -234
28 -309 93 -42 37 -90 116 -82 136 5 12 80 14 523 14 l518 -1 8 58 c16 112 -5
303 -44 408 -55 148 -157 273 -292 359 -89 57 -241 102 -362 109 -55 2 -113 3
-130 0z m202 -409 c28 -8 71 -29 95 -47 51 -39 108 -111 108 -138 0 -18 -11
-19 -316 -19 l-315 0 27 51 c49 89 137 152 236 167 58 10 88 7 165 -14z"/>
<path d="M12012 4675 l3 -756 218 0 c119 0 222 1 227 1 7 0 10 258 10 755 l0
755 -230 0 -230 0 2 -755z"/>
<path d="M6750 3542 c-47 -5 -95 -33 -118 -66 -26 -38 -29 -103 -8 -144 16
-30 86 -73 154 -93 84 -25 119 -83 85 -141 -26 -45 -58 -60 -121 -55 -40 3
-59 10 -80 30 -24 23 -29 24 -46 12 -46 -34 42 -89 141 -89 82 1 133 33 158
99 35 91 -10 156 -134 195 -85 26 -121 58 -121 109 0 38 21 72 57 90 35 18 97
13 127 -10 29 -23 59 -22 64 1 5 29 -98 70 -158 62z"/>
<path d="M10115 3536 c-96 -23 -148 -65 -186 -151 -28 -61 -30 -170 -5 -228
22 -51 81 -114 130 -140 58 -31 184 -30 241 1 77 41 121 98 144 184 24 87 -13
213 -80 276 -53 51 -164 77 -244 58z m161 -57 c128 -61 163 -242 69 -365 -83
-109 -272 -99 -352 19 -78 116 -39 288 78 345 60 29 145 29 205 1z"/>
<path d="M11935 3536 c-91 -22 -142 -63 -180 -142 -49 -103 -28 -243 48 -322
54 -57 101 -76 192 -76 71 -1 86 2 134 29 130 72 176 237 106 382 -51 103
-179 158 -300 129z m165 -58 c60 -31 98 -82 112 -151 38 -180 -96 -322 -266
-283 -110 26 -168 104 -168 225 1 79 18 124 66 171 48 46 80 58 151 59 44 1
73 -5 105 -21z"/>
<path d="M13783 3540 c-138 -28 -217 -125 -217 -270 0 -114 45 -195 136 -246
48 -26 62 -29 138 -28 60 1 100 7 135 21 l50 21 3 126 3 127 -88 -3 c-73 -3
-88 -6 -91 -20 -3 -14 7 -17 60 -20 l63 -3 0 -90 0 -90 -40 -13 c-56 -18 -143
-17 -193 3 -106 43 -158 176 -116 299 48 139 209 189 335 104 25 -17 27 -17
44 2 16 18 15 20 -23 44 -21 13 -65 29 -97 35 -32 6 -59 11 -59 10 -1 -1 -20
-5 -43 -9z"/>
<path d="M7032 3273 l3 -258 22 -3 23 -3 2 223 3 223 33 -70 c50 -102 92 -196
92 -201 0 -17 81 -174 90 -174 6 0 19 19 29 43 10 23 27 62 38 87 12 25 34 77
51 115 16 39 42 99 58 134 l29 65 5 -220 c5 -218 5 -219 28 -222 l22 -3 0 261
0 261 -36 -3 -35 -3 -92 -212 c-68 -156 -95 -209 -103 -200 -6 7 -29 55 -51
107 -23 52 -62 143 -88 203 l-47 107 -39 0 -39 0 2 -257z"/>
<path d="M7831 3458 c-55 -119 -191 -435 -191 -442 0 -11 37 -6 47 7 5 6 18
32 28 57 10 25 25 51 34 58 16 13 248 17 266 4 6 -4 22 -34 36 -67 22 -51 30
-61 54 -63 20 -3 26 0 23 10 -31 80 -204 486 -211 496 -5 6 -19 12 -32 12 -17
0 -28 -14 -54 -72z m69 -9 c0 -6 11 -35 25 -65 14 -30 25 -57 25 -60 0 -7 27
-70 41 -97 5 -10 7 -22 4 -27 -9 -14 -225 -13 -225 1 0 6 6 25 14 42 18 40 47
106 76 174 19 46 40 62 40 32z"/>
<path d="M8212 3273 c3 -258 3 -258 25 -261 22 -3 22 -1 25 120 l3 123 37 3
c45 4 53 -4 129 -135 58 -101 76 -120 102 -110 13 5 4 27 -53 118 -39 62 -70
115 -70 118 0 4 19 15 42 26 59 28 80 61 80 125 -1 96 -59 130 -226 130 l-96
0 2 -257z m249 181 c14 -14 21 -34 21 -58 0 -66 -47 -96 -152 -96 l-70 0 0 88
c0 49 2 91 4 93 2 2 43 2 90 -1 70 -4 89 -9 107 -26z"/>
<path d="M8590 3511 c0 -26 19 -31 106 -31 l74 0 0 -236 0 -235 23 3 22 3 3
233 2 232 74 0 c87 0 106 5 106 31 0 18 -11 19 -205 19 -194 0 -205 -1 -205
-19z"/>
<path d="M9270 3269 l0 -260 23 3 c22 3 22 4 25 217 2 187 4 212 17 201 8 -7
15 -17 15 -22 0 -5 14 -39 30 -75 17 -35 30 -66 30 -68 0 -3 12 -30 26 -62 15
-32 39 -87 55 -123 15 -36 34 -66 42 -68 9 -2 26 26 52 85 20 48 49 115 64
148 15 33 40 90 56 128 15 37 32 67 37 67 4 0 8 -97 8 -216 l0 -215 23 3 22 3
3 258 2 258 -36 -3 c-20 -2 -41 -10 -45 -18 -12 -23 -69 -151 -69 -156 0 -2
-16 -38 -35 -80 -19 -41 -35 -77 -35 -78 0 -2 -9 -25 -21 -51 -25 -56 -27 -55
-83 80 -21 50 -50 117 -65 150 -15 33 -36 81 -47 107 -18 45 -21 48 -56 48
l-38 0 0 -261z"/>
<path d="M10560 3269 l0 -260 23 3 c22 3 22 4 27 223 l5 220 155 -222 c147
-211 157 -222 188 -223 l32 0 0 261 0 260 -22 -3 c-23 -3 -23 -4 -28 -225 l-5
-222 -90 130 c-49 71 -119 172 -155 224 -59 86 -68 94 -97 95 l-33 0 0 -261z"/>
<path d="M11140 3271 c0 -253 1 -261 20 -261 12 0 22 9 25 23 3 12 4 128 3
257 l-3 235 -22 3 -23 3 0 -260z"/>
<path d="M11270 3511 c0 -26 19 -31 106 -31 l74 0 0 -235 0 -235 25 0 25 0 2
237 3 237 58 -3 c80 -4 117 6 117 30 0 18 -9 19 -205 19 -194 0 -205 -1 -205
-19z"/>
<path d="M12380 3270 l0 -260 25 0 24 0 3 123 3 122 37 3 c45 4 48 1 131 -138
46 -77 68 -106 85 -108 12 -2 22 2 22 8 0 7 -29 59 -65 117 -36 57 -65 108
-65 113 0 5 16 14 35 20 52 17 85 66 85 126 0 98 -58 133 -217 134 l-103 0 0
-260z m249 186 c18 -16 21 -29 19 -65 -3 -39 -8 -49 -37 -68 -28 -19 -48 -23
-107 -23 l-74 0 0 88 c0 49 2 91 4 93 2 2 42 2 89 -1 65 -4 90 -10 106 -24z"/>
<path d="M12822 3273 l3 -258 23 -3 22 -3 0 260 0 261 -25 0 -25 0 2 -257z"/>
<path d="M13020 3270 c0 -248 1 -260 19 -260 10 0 22 8 25 17 4 9 6 106 6 216
-1 109 1 201 3 204 3 2 34 -38 69 -89 228 -333 240 -348 275 -348 l33 0 0 260
0 260 -25 0 -25 0 0 -220 c0 -121 -3 -220 -8 -220 -4 0 -43 52 -87 116 -216
315 -223 324 -255 324 l-30 0 0 -260z"/>
</g>
</svg>
