<?xml version="1.0" encoding="utf-8"?>
<!-- Generator: Adobe Illustrator 16.0.0, SVG Export Plug-In . SVG Version: 6.00 Build 0)  -->
<!DOCTYPE svg PUBLIC "-//W3C//DTD SVG 1.1//EN" "http://www.w3.org/Graphics/SVG/1.1/DTD/svg11.dtd">
<svg version="1.1" id="Layer_1" xmlns="http://www.w3.org/2000/svg" xmlns:xlink="http://www.w3.org/1999/xlink" x="0px" y="0px"
	 width="24px" height="24px" viewBox="0 0 24 24" enable-background="new 0 0 24 24" xml:space="preserve">
<path d="M23.882,13.055c-0.336-1.502-1.545-2.869-3.012-3.347c-0.494-0.162-1.058-0.281-1.577-0.312
	c-0.306-0.019-0.599-0.013-0.9,0.04c-0.397,0.069-0.453,0.02-0.545-0.354c-0.11-0.57-0.294-1.114-0.565-1.628
	c-0.381-0.686-0.868-1.284-1.481-1.774c-1.111-0.883-2.54-1.338-3.958-1.217c-0.95,0.081-1.842,0.37-2.646,0.881
	C8.742,5.631,8.355,5.998,7.983,6.382C7.918,6.451,7.858,6.524,7.798,6.597C7.417,7.056,7.171,7.593,6.936,8.134
	C6.872,8.292,6.84,8.458,6.788,8.619C6.756,8.703,6.752,8.793,6.7,8.869C5.243,8.456,3.545,8.726,2.285,9.565
	c-0.33,0.219-0.671,0.485-0.939,0.779c-0.872,0.951-1.383,2.285-1.344,3.576c0.033,1.06,0.352,2.168,0.986,3.027
	c0.182,0.246,0.397,0.483,0.63,0.683c1.095,0.935,2.632,1.525,4.033,1.79c0.401,0.077,0.809,0.122,1.219,0.125
	c2.79,0.021,5.582,0.01,8.372,0.006c1.003,0,2.004,0.024,3.005-0.071c1.309-0.126,2.521-0.76,3.64-1.411
	c0.633-0.368,1.221-0.773,1.547-1.449C23.959,15.532,24.145,14.235,23.882,13.055L23.882,13.055z M14.562,14.494
	c-0.273,0.546-0.614,1.054-0.974,1.547c-0.319,0.441-0.644,1.02-1.084,1.351c-0.127,0.094-0.266,0.165-0.418,0.197
	c-0.418,0.084-0.853-0.118-1.185-0.357c-0.168-0.12-0.246-0.283-0.34-0.456c-0.051-0.094-0.134-0.189-0.092-0.302
	c0.036-0.098,0.137-0.16,0.207-0.228c0.062-0.059,0.129-0.113,0.183-0.175c0.133-0.154,0.292-0.272,0.415-0.437
	c0.121-0.167,0.22-0.349,0.326-0.526c0.157-0.268,0.3-0.61,0.31-0.925c0.013-0.423-0.457-0.355-0.732-0.348
	c-1.169,0.029-2.014-0.869-2.391-1.902C8.434,10.967,8.403,9.84,8.75,8.869c0.082-0.211,0.173-0.415,0.306-0.6
	c0.168-0.262,0.361-0.502,0.616-0.686c0.229-0.207,0.493-0.356,0.774-0.48c0.514-0.227,1.212-0.32,1.77-0.33
	c0.567-0.009,1.129,0.116,1.634,0.374c0.891,0.455,1.519,1.263,1.72,2.243c0.104,0.511,0.172,1.12,0.12,1.641
	c-0.054,0.546-0.136,1.087-0.303,1.612L14.562,14.494z M0.709,16.19L0.709,16.19L0.709,16.19L0.709,16.19z M23.884,14.319
	c0.001-0.002,0.002-0.004,0.003-0.006c0,0.002,0,0.005,0,0.007C23.886,14.32,23.885,14.32,23.884,14.319z M12.996,10.813
	c-0.007-0.093-0.018-0.185-0.03-0.274c-0.042-0.305-0.099-0.604-0.207-0.892c-0.107-0.285-0.271-0.581-0.576-0.69
	c-0.259-0.093-0.532,0.056-0.667,0.275c-0.149,0.247-0.171,0.576-0.17,0.858c0.001,0.213,0.021,0.448,0.078,0.653
	c0.09,0.322,0.199,0.715,0.457,0.942c0.354,0.311,0.907,0.281,1.062-0.219C13.005,11.259,13.012,11.034,12.996,10.813L12.996,10.813
	z"/>
</svg>
