<?xml version="1.0" encoding="utf-8"?>
<!-- Generator: Adobe Illustrator 21.1.0, SVG Export Plug-In . SVG Version: 6.00 Build 0)  -->
<svg version="1.1" id="Ebene_1" xmlns="http://www.w3.org/2000/svg" xmlns:xlink="http://www.w3.org/1999/xlink" x="0px" y="0px"
	 viewBox="0 0 1110.8 203.1" enable-background="new 0 0 1110.8 203.1" xml:space="preserve">
<g>
	<path d="M111.1,155.6c7.1-27.5,13.8-53.6,20.5-79.7c6.1-23.7,12.2-47.4,18.1-71.1c0.8-3.3,2-4.9,5.9-4.9
		c19.8,0.2,39.7,0.1,59.5,0.1c1.5,0,2.9,0.2,4.7,0.3c0,66.1,0,131.9,0,198c-14.7,0-29.4,0-44.5,0c0-49.5,0-99.2,0-148.9
		c-0.2,0-0.4-0.1-0.5-0.1c-1.6,6.9-3.1,13.8-5,20.7c-11.6,41.8-23.2,83.7-35,125.4c-0.4,1.3-2.5,3.1-3.8,3.2
		c-13.8,0.2-27.7,0.2-41.5,0c-1.4,0-3.6-1.7-3.9-3c-13.1-47.3-26-94.6-39-141.9c-0.4-1.4-0.8-2.8-1.5-5.2c0,50.6,0,100.2,0,150
		c-14.9,0-29.5,0-44.6,0c-0.1-1.8-0.3-3.5-0.3-5.3c0-62.5,0-125-0.1-187.4c0-4.5,1-6,5.8-5.9c19.7,0.3,39.3,0.3,59,0
		c4.7-0.1,6.6,1.2,7.7,5.8c12.2,48.2,24.6,96.4,37,144.5C109.8,151.6,110.2,152.9,111.1,155.6z"/>
	<path d="M831.9,198.7c-15.3,0-29.7,0-44.8,0c0-2.1,0-4.1,0-6c-0.2-29.3-0.2-58.6-0.6-88c-0.1-5.7-1.2-11.6-2.9-17.1
		c-3-9.7-10.3-14.5-20.7-14.9c-10.2-0.4-17.3,4-21.5,13.1c-5.2,11.2-5.6,23.2-5.7,35.2c-0.2,24,0,48,0,72c0,1.8,0,3.6,0,5.7
		c-15.1,0-29.7,0-44.7,0c0-50.7,0-101.6,0-152.8c14.6,0,29.2,0,44.4,0c0,7.2,0,14.4,0,21.6c0.4,0.2,0.9,0.3,1.3,0.5
		c2.5-4.1,4.8-8.5,7.7-12.3c2.3-3.1,5.1-6.2,8.4-8c18.1-10,47.4-7.6,62.7,5.6c5.3,4.6,9,10.9,13.8,16.7c2.2-2.9,5.3-6.3,7.6-10.3
		c6.2-10.5,15.7-15.3,27.3-17.1c13.6-2.1,27-1.5,39.4,4.9c15.1,7.7,23,20.6,23.9,37.2c0.9,16.6,0.9,33.3,1,49.9
		c0.1,20.8,0,41.7,0,62.5c0,0.3-0.1,0.6-0.3,1.4c-14.6,0-29.3,0-44.8,0c0-1.9,0-3.8,0-5.7c-0.3-30.3-0.4-60.6-0.9-90.9
		c-0.1-4.7-1-9.6-2.5-14.2c-3.1-9.6-10.1-14.5-20.2-15c-10.3-0.5-17.9,3.9-22.1,13c-5.4,11.5-5.7,23.9-5.8,36.2
		c-0.2,23.7-0.1,47.3-0.1,71C831.9,194.6,831.9,196.4,831.9,198.7z"/>
	<path d="M383.7,198.6c-13.7,0-27.9,0-42.5,0c-1-6.9-2-13.6-3-20.3c-0.3-0.1-0.6-0.2-0.9-0.3c-1.3,3.1-2.9,6.1-3.9,9.3
		c-1.3,4.1-3.9,6.7-7.8,8.4c-18.1,8-36.5,10.1-55.2,2.5c-33.6-13.6-34.2-58.2-8.8-76.5c14.4-10.4,31-14.2,48.3-15.7
		c8.9-0.8,17.9-0.9,26.9-1.3c3.6-16.2-2.2-28.6-14.7-31.5c-15.9-3.6-25.1,3.2-30.2,22.9c-0.9,0.1-1.8,0.3-2.8,0.3c-13,0-26,0-39.5,0
		c-0.5-9,1.9-17,6.1-24.5c8.6-15.4,22.5-23.7,39.1-27.7c17.2-4.1,34.4-3.7,51.4,1c22.1,6.1,34.2,21.9,35.2,45.9
		c0.6,14.5,0.6,29,0.9,43.5C382.8,155.7,383.3,177,383.7,198.6z M337.3,131.9c-3.3-0.2-5.9-0.6-8.6-0.5c-10.3,0.1-20.7,0.6-29.7,6.5
		c-11.9,7.7-11.9,25.3,0,31.4c12.1,6.1,28.1,1.1,34.6-10.8C338.1,150.3,337.6,141.3,337.3,131.9z"/>
	<path d="M508.6,121.8c-0.1-23.9,6.4-45.4,25-61.7c16.3-14.2,36-18.8,57.1-18.5c17.2,0.2,33.4,3.9,47.7,13.9
		c20.2,14.1,29.3,34.4,31.1,58.3c1.4,17.5-0.9,34.6-9.3,50.4c-10.3,19.2-26.4,30.9-47.4,36c-20,4.8-39.8,4.2-58.9-3.6
		c-28.9-11.9-42.3-35-45.3-65.2C508.3,128.1,508.6,124.9,508.6,121.8z M553.1,121.3c2.1,10.1,3.1,19.7,6.2,28.7
		c4.2,12.6,13.3,20.7,27.1,21.7c13.9,1,24.6-4.9,30.2-17.6c9.4-21.1,9.4-42.7,0.2-63.8c-5.3-12.1-15.2-18-28.6-17.8
		c-13.7,0.3-23.4,7.3-28.1,19.5C556.5,101.3,555.3,111.6,553.1,121.3z"/>
	<path d="M949.5,122c-0.1-23.9,6.3-45.5,24.9-61.8c16.3-14.3,35.9-18.9,57-18.7c17.2,0.2,33.4,3.8,47.7,13.8
		c20.2,14,29.4,34.3,31.3,58.2c1.4,17.9-0.9,35.2-9.7,51.3c-10.3,18.8-26.2,30.2-46.8,35.2c-19.9,4.8-39.8,4.3-58.9-3.4
		c-29.2-11.9-42.6-35.2-45.5-65.5C949.3,128,949.5,125,949.5,122z M1065.5,122.3c-2.1-9.9-3.1-19.4-6.1-28.3
		c-4-12-12.4-20-25.7-21.3c-14-1.4-25.2,3.8-31.2,16.6c-10,21.3-9.8,43.3-0.4,64.7c5.5,12.4,16,18.4,29.7,17.7
		c13.5-0.6,22.7-8.1,27.1-20.2C1062.2,142.1,1063.4,131.9,1065.5,122.3z"/>
	<path d="M467.4,46.6c11.4,0,21.8,0,32.6,0c0,9.5,0,18.6,0,28.4c-10.6,0-21.1,0-32,0c-0.2,2.1-0.4,3.5-0.4,5c0,22.3,0,44.6,0,67
		c0,4,0.4,8,0.9,11.9c1.1,7.3,4.5,11,11.8,12.1c5.4,0.8,10.9,0.8,17,1.3c0,8.5,0.1,17.1-0.1,25.7c0,0.9-1.4,2.4-2.2,2.5
		c-16.2,2-32.5,3.8-48.6-0.5c-13.6-3.6-21.3-12.5-22.7-26.5c-0.8-8.1-1.1-16.3-1.1-24.4c-0.2-24-0.1-48-0.1-71.9
		c0-0.3-0.1-0.6-0.3-1.6c-7.2,0-14.6,0-22.4,0c0-9.8,0-19,0-28.8c7.4,0,14.8,0,22.8,0c0-13.1,0-25.7,0-38.5c15.1,0,29.7,0,44.9,0
		C467.4,20.7,467.4,33.3,467.4,46.6z"/>
	<path fill="#FFFFFF" d="M337.3,131.9c0.3,9.4,0.8,18.3-3.7,26.6c-6.5,11.9-22.5,16.9-34.6,10.8c-11.9-6.1-11.9-23.7,0-31.4
		c9.1-5.9,19.4-6.4,29.7-6.5C331.4,131.4,334,131.7,337.3,131.9z"/>
</g>
</svg>
