<?xml version="1.0" encoding="UTF-8" standalone="no"?>
<svg
   viewBox="0 0 96.053329 106.49333"
   height="106.49333"
   width="96.053329"
   xml:space="preserve"
   id="svg2"
   version="1.1"
   sodipodi:docname="catalogIcon-eea-website-frontend.svg"
   inkscape:version="1.1.2 (0a00cf5339, 2022-02-04)"
   xmlns:inkscape="http://www.inkscape.org/namespaces/inkscape"
   xmlns:sodipodi="http://sodipodi.sourceforge.net/DTD/sodipodi-0.dtd"
   xmlns="http://www.w3.org/2000/svg"
   xmlns:svg="http://www.w3.org/2000/svg"
   xmlns:rdf="http://www.w3.org/1999/02/22-rdf-syntax-ns#"
   xmlns:cc="http://creativecommons.org/ns#"
   xmlns:dc="http://purl.org/dc/elements/1.1/"><sodipodi:namedview
     id="namedview888"
     pagecolor="#ffffff"
     bordercolor="#666666"
     borderopacity="1.0"
     inkscape:pageshadow="2"
     inkscape:pageopacity="0.0"
     inkscape:pagecheckerboard="0"
     showgrid="false"
     inkscape:zoom="4.0612871"
     inkscape:cx="18.097711"
     inkscape:cy="51.830859"
     inkscape:window-width="1916"
     inkscape:window-height="1048"
     inkscape:window-x="0"
     inkscape:window-y="14"
     inkscape:window-maximized="1"
     inkscape:current-layer="svg2" /><metadata
     id="metadata8"><rdf:RDF><cc:Work
         rdf:about=""><dc:format>image/svg+xml</dc:format><dc:type
           rdf:resource="http://purl.org/dc/dcmitype/StillImage" /></cc:Work></rdf:RDF></metadata><defs
     id="defs6" /><g
     transform="matrix(0.97747148,0,0,-1.0242384,25.59167,105.39037)"
     id="g10"><g
       transform="scale(0.1)"
       id="g12"><g
         transform="scale(10)"
         id="g14"><text
   id="text18"
   style="font-variant:normal;font-weight:bold;font-size:17.1969px;font-family:Verdana;-inkscape-font-specification:Verdana-Bold;writing-mode:lr-tb;fill:#125a9e;fill-opacity:1;fill-rule:nonzero;stroke:none"
   transform="matrix(1,0,0,-1,33.4758,3.56836)"><tspan
     id="tspan16"
     y="0"
     x="0 12.779297 25.213673">EEA</tspan></text>
</g><path
         id="path20"
         style="fill:none;stroke:#009391;stroke-width:10;stroke-linecap:butt;stroke-linejoin:miter;stroke-miterlimit:4;stroke-dasharray:none;stroke-opacity:1"
         d="M 324.855,43.7109 H 142.617 c -66.2693,0 -119.9998,53.7305 -119.9998,120.0001 v 166.055" /><path
         id="path22"
         style="fill:none;stroke:#009391;stroke-width:10;stroke-linecap:butt;stroke-linejoin:miter;stroke-miterlimit:4;stroke-dasharray:none;stroke-opacity:1"
         d="m 454.855,793.672 h 117.723 c 66.277,0 120,-53.731 120,-120 V 233.711" /><path
         id="path24"
         style="fill:#125a9e;fill-opacity:1;fill-rule:nonzero;stroke:none"
         d="m 459.973,483.137 c 0,38.261 -14.895,74.218 -41.946,101.265 -5.312,5.317 -10.996,10.141 -16.933,14.496 l -22.442,-37.621 c 23.457,-18.711 40.215,-45.797 40.215,-78.14 0,-56.391 -45.703,-102.09 -102.109,-102.09 -13.184,0 -25.781,2.539 -37.356,7.105 l -20.75,-35.933 c 18.067,-8.028 37.774,-12.27 58.106,-12.27 78.984,0 143.215,64.223 143.215,143.188" /><path
         id="path26"
         style="fill:#009391;fill-opacity:1;fill-rule:nonzero;stroke:none"
         d="m 423.555,742.395 c -0.176,13.105 -1.426,25.585 -3.692,37.128 l -0.781,3.907 -2.949,-2.657 C 407.266,772.766 398.652,763.41 390.508,752.941 348.191,698.445 326.66,625.559 339.277,579.602 l 0.371,-1.348 1.368,-0.274 c 2.714,-0.531 5.175,-1.156 7.539,-1.894 2.793,-0.898 5.539,-1.953 8.183,-3.164 l 1.27,-0.586 1.055,0.84 c 38.281,29.804 65.39,100.957 64.492,169.219" /><path
         id="path28"
         style="fill:#009391;fill-opacity:1;fill-rule:nonzero;stroke:none"
         d="m 277.793,794.133 -2.422,3.164 -1.476,-3.692 c -4.422,-11.093 -8.016,-23.3 -10.672,-36.289 -13.868,-67.582 -0.957,-142.48 30.683,-178.105 l 0.918,-1.059 1.348,0.375 c 2.676,0.703 5.156,1.231 7.617,1.621 2.891,0.426 5.82,0.704 8.731,0.782 l 1.375,0.015 0.609,1.25 c 21.141,43.633 14.012,119.457 -16.984,180.278 -5.957,11.679 -12.598,22.324 -19.727,31.66" /><path
         id="path30"
         style="fill:#009391;fill-opacity:1;fill-rule:nonzero;stroke:none"
         d="m 175.566,724.758 c -10.476,7.851 -21.152,14.472 -31.699,19.687 l -3.562,1.758 0.32,-3.965 c 0.938,-11.894 3.125,-24.433 6.484,-37.265 17.422,-66.739 62.129,-128.203 106.27,-146.196 l 1.289,-0.523 1.035,0.937 c 2.09,1.817 4.082,3.375 6.113,4.801 2.383,1.684 4.922,3.203 7.5,4.574 l 1.231,0.645 -0.02,1.363 c -0.332,48.496 -40.261,113.344 -94.961,154.184" /><path
         id="path32"
         style="fill:#009391;fill-opacity:1;fill-rule:nonzero;stroke:none"
         d="M 66.0664,606.691 C 111.211,554.543 178.496,519.152 226.035,522.551 l 1.387,0.097 0.539,1.305 c 1.043,2.563 2.144,4.848 3.348,7.016 1.386,2.558 2.988,5.058 4.699,7.398 l 0.808,1.117 -0.605,1.231 c -21.758,43.34 -86.25,83.848 -153.3399,96.308 -12.8906,2.379 -25.3711,3.614 -37.1484,3.629 l -3.9649,0.024 2.0313,-3.418 c 6.1132,-10.274 13.6132,-20.547 22.2773,-30.567" /><path
         id="path34"
         style="fill:#009391;fill-opacity:1;fill-rule:nonzero;stroke:none"
         d="m 217.52,477.98 1.191,0.719 -0.098,1.367 c -0.168,2.754 -0.195,5.317 -0.097,7.778 0.129,2.929 0.449,5.855 0.937,8.726 l 0.242,1.371 -1.082,0.821 C 179.941,528.02 104.199,535.852 38.4961,517.336 25.8789,513.801 14.1406,509.363 3.57422,504.191 L 0,502.434 3.35156,500.266 C 13.3594,493.777 24.6289,487.859 36.8359,482.703 100.41,455.906 176.387,453.914 217.52,477.98" /><path
         id="path36"
         style="fill:#009391;fill-opacity:1;fill-rule:nonzero;stroke:none"
         d="m 228.672,433.352 0.762,1.152 -0.704,1.211 c -1.386,2.383 -2.519,4.644 -3.535,6.914 -1.152,2.691 -2.168,5.445 -3.007,8.238 l -0.379,1.328 -1.36,0.254 c -47.617,9.16 -119.004,-17.32 -169.7537,-62.945 -9.7578,-8.77 -18.3242,-17.934 -25.5,-27.246 l -2.4297,-3.149 3.961,-0.488 c 11.8593,-1.402 24.5703,-1.695 37.7851,-0.918 68.8863,4.043 137.9103,35.863 164.1603,75.649" /><path
         id="path38"
         style="fill:#009391;fill-opacity:1;fill-rule:nonzero;stroke:none"
         d="m 251.582,405.789 c -2.227,1.875 -4.355,3.93 -6.348,6.074 l -0.918,1.02 -1.336,-0.371 c -46.757,-12.856 -99.074,-68.164 -124.425,-131.543 -4.864,-12.168 -8.496,-24.16 -10.821,-35.703 l -0.781,-3.907 3.75,1.329 c 11.25,4.003 22.793,9.335 34.317,15.878 59.96,34.082 107.812,93.145 113.769,140.411 l 0.195,1.382 -1.171,0.786 c -2.305,1.543 -4.329,3.066 -6.231,4.644" /><path
         id="path40"
         style="fill:#125a9e;fill-opacity:1;fill-rule:nonzero;stroke:none"
         d="m 588.047,440.109 c 10.781,2.793 21.777,6.192 30.683,10.02 1.172,10.855 1.094,38.687 0.997,41.812 -8.614,4.18 -18.594,8.579 -28.965,11.86 -19.102,6.035 -46.543,8.75 -65.52,10.215 -2.39,14.937 -0.789,7.011 -4.949,22.129 16.875,9.316 40.945,23.203 55.84,36.796 8.262,7.539 15.43,15.211 21.523,22.813 -5.312,13.184 -11.465,25.937 -18.496,38.125 -9.59,-0.352 -19.785,-1.43 -30.539,-3.418 -19.695,-3.652 -45.183,-14.16 -62.625,-21.762 -9.121,12.055 -3.965,5.824 -14.766,17.207 10.547,16.157 25.274,39.707 32.032,58.735 3.75,10.507 5.968,19.648 7.754,29.199 -8.836,7.441 -18.106,14.355 -27.774,20.762 L 417.773,621.34 c 7.032,-5.156 13.77,-10.844 20.059,-17.129 32.344,-32.348 50.156,-75.332 50.156,-121.059 0,-45.742 -17.812,-88.726 -50.156,-121.074 -32.324,-32.344 -75.332,-50.137 -121.055,-50.137 -24.238,0 -47.675,5.063 -69.211,14.59 L 181.66,212.395 c 10.098,-5.04 20.449,-9.551 31.133,-13.477 6.562,6.07 13.105,12.984 19.512,20.777 12.734,15.453 25.566,39.946 34.023,56.977 14.746,-3.379 6.797,-1.914 22.383,-3.711 2.312,-19.145 6.133,-46.699 13.164,-65.606 3.652,-9.804 7.773,-20.078 12.188,-28.144 0.898,0 30.351,0.977 43.789,2.793 3.007,8.57 5.605,19.219 7.656,29.312 4.004,19.614 3.847,47.25 3.301,66.25 14.609,3.965 6.894,1.504 21.504,7.27 11.035,-15.844 27.343,-38.359 42.429,-51.738 8,-7.114 16.887,-13.657 24.738,-18.774 12.872,6.723 25.215,14.297 36.922,22.754 -1.355,9.184 -4.351,19.301 -7.351,29.375 -5.664,19.223 -18.77,43.496 -28.164,60.063 11.035,10.332 5.371,4.55 15.566,16.48 17.188,-8.785 42.129,-21.012 61.738,-25.762 10.664,-2.554 21.68,-4.625 31.204,-5.425 8.054,11.757 15.308,24.082 21.668,36.929 -5.586,7.621 -13.028,15.785 -20.567,23.457 -14.023,14.297 -36.992,29.59 -53.066,39.789 4.902,14.317 2.605,6.543 6.015,21.875 19.297,0.293 47.051,1.231 66.602,6.25" /></g></g><circle
     cx="17.950809"
     cy="11.75666"
     r="4.402"
     id="circle125" /><path
     d="m 31.302807,20.551662 c 0,2.433 -1.969,4.401 -4.403,4.401 -2.427,0 -4.401,-1.97 -4.401,-4.401 0,-2.433 1.975,-4.401 4.401,-4.401 2.436,-0.001 4.403,1.969 4.403,4.401 z"
     id="path127" /><circle
     cx="17.93681"
     cy="29.371662"
     r="4.402"
     id="circle129" /><g
     id="g133"
     transform="translate(0.1358073,0.2406622)"><path
       d="M 20.441,-0.045 C 9.207,-0.044 0.1,9.063 0.099,20.298 0.1,31.532 9.207,40.639 20.441,40.641 31.676,40.639 40.782,31.534 40.784,20.298 40.783,9.063 31.677,-0.044 20.441,-0.045 Z m 11.45,31.792 C 28.954,34.681 24.919,36.489 20.441,36.49 15.963,36.489 11.928,34.679 8.991,31.747 6.058,28.81 4.25,24.775 4.249,20.298 4.25,15.82 6.058,11.785 8.992,8.848 c 2.937,-2.934 6.972,-4.742 11.45,-4.743 4.478,10e-4 8.513,1.81 11.45,4.743 2.934,2.938 4.742,6.973 4.743,11.45 -0.002,4.477 -1.81,8.512 -4.744,11.449 z"
       id="path131" /></g></svg>
