<svg width="96.053" height="106.49" version="1.1" viewBox="0 0 96.053 106.49" xmlns="http://www.w3.org/2000/svg">
 <g transform="matrix(.97747 0 0 -1.0242 25.592 105.39)">
  <g transform="scale(.1)">
   <g transform="scale(10)">
    <g transform="matrix(1 0 0 -1 33.476 3.5684)" fill="#125a9e" aria-label="EEA">
     <path d="m1.5786-12.537h8.7244v2.4435h-5.4916v2.3343h5.1641v2.4435h-5.1641v2.8717h5.6763v2.4435h-8.9091z"/>
     <path d="m14.358-12.537h8.7244v2.4435h-5.4916v2.3343h5.1641v2.4435h-5.1641v2.8717h5.6763v2.4435h-8.9091z"/>
     <path d="m34.4-2.284h-5.0549l-0.79771 2.284h-3.2496l4.6435-12.537h3.8542l4.6435 12.537h-3.2496zm-4.2488-2.3259h3.4343l-1.713-4.9878z"/>
    </g>
   </g>
   <path d="m324.86 43.711h-182.24c-66.269 0-120 53.73-120 120v166.06" fill="none" stroke="#009391" stroke-width="10"/>
   <path d="m454.86 793.67h117.72c66.277 0 120-53.731 120-120v-439.96" fill="none" stroke="#009391" stroke-width="10"/>
   <path d="m459.97 483.14c0 38.261-14.895 74.218-41.946 101.26-5.312 5.317-10.996 10.141-16.933 14.496l-22.442-37.621c23.457-18.711 40.215-45.797 40.215-78.14 0-56.391-45.703-102.09-102.11-102.09-13.184 0-25.781 2.539-37.356 7.105l-20.75-35.933c18.067-8.028 37.774-12.27 58.106-12.27 78.984 0 143.22 64.223 143.22 143.19" fill="#125a9e"/>
   <g fill="#009391">
    <path d="m423.56 742.4c-0.176 13.105-1.426 25.585-3.692 37.128l-0.781 3.907-2.949-2.657c-8.867-8.007-17.481-17.363-25.625-27.832-42.317-54.496-63.848-127.38-51.231-173.34l0.371-1.348 1.368-0.274c2.714-0.531 5.175-1.156 7.539-1.894 2.793-0.898 5.539-1.953 8.183-3.164l1.27-0.586 1.055 0.84c38.281 29.804 65.39 100.96 64.492 169.22"/>
    <path d="m277.79 794.13-2.422 3.164-1.476-3.692c-4.422-11.093-8.016-23.3-10.672-36.289-13.868-67.582-0.957-142.48 30.683-178.1l0.918-1.059 1.348 0.375c2.676 0.703 5.156 1.231 7.617 1.621 2.891 0.426 5.82 0.704 8.731 0.782l1.375 0.015 0.609 1.25c21.141 43.633 14.012 119.46-16.984 180.28-5.957 11.679-12.598 22.324-19.727 31.66"/>
    <path d="m175.57 724.76c-10.476 7.851-21.152 14.472-31.699 19.687l-3.562 1.758 0.32-3.965c0.938-11.894 3.125-24.433 6.484-37.265 17.422-66.739 62.129-128.2 106.27-146.2l1.289-0.523 1.035 0.937c2.09 1.817 4.082 3.375 6.113 4.801 2.383 1.684 4.922 3.203 7.5 4.574l1.231 0.645-0.02 1.363c-0.332 48.496-40.261 113.34-94.961 154.18"/>
    <path d="m66.066 606.69c45.145-52.148 112.43-87.539 159.97-84.14l1.387 0.097 0.539 1.305c1.043 2.563 2.144 4.848 3.348 7.016 1.386 2.558 2.988 5.058 4.699 7.398l0.808 1.117-0.605 1.231c-21.758 43.34-86.25 83.848-153.34 96.308-12.891 2.379-25.371 3.614-37.148 3.629l-3.9649 0.024 2.0313-3.418c6.1132-10.274 13.613-20.547 22.277-30.567"/>
    <path d="m217.52 477.98 1.191 0.719-0.098 1.367c-0.168 2.754-0.195 5.317-0.097 7.778 0.129 2.929 0.449 5.855 0.937 8.726l0.242 1.371-1.082 0.821c-38.672 29.258-114.41 37.09-180.12 18.574-12.617-3.535-24.356-7.973-34.922-13.145l-3.5742-1.757 3.3516-2.168c10.008-6.489 21.277-12.407 33.484-17.563 63.574-26.797 139.55-28.789 180.68-4.723"/>
    <path d="m228.67 433.35 0.762 1.152-0.704 1.211c-1.386 2.383-2.519 4.644-3.535 6.914-1.152 2.691-2.168 5.445-3.007 8.238l-0.379 1.328-1.36 0.254c-47.617 9.16-119-17.32-169.75-62.945-9.7578-8.77-18.324-17.934-25.5-27.246l-2.4297-3.149 3.961-0.488c11.859-1.402 24.57-1.695 37.785-0.918 68.886 4.043 137.91 35.863 164.16 75.649"/>
    <path d="m251.58 405.79c-2.227 1.875-4.355 3.93-6.348 6.074l-0.918 1.02-1.336-0.371c-46.757-12.856-99.074-68.164-124.42-131.54-4.864-12.168-8.496-24.16-10.821-35.703l-0.781-3.907 3.75 1.329c11.25 4.003 22.793 9.335 34.317 15.878 59.96 34.082 107.81 93.145 113.77 140.41l0.195 1.382-1.171 0.786c-2.305 1.543-4.329 3.066-6.231 4.644"/>
   </g>
   <path d="m588.05 440.11c10.781 2.793 21.777 6.192 30.683 10.02 1.172 10.855 1.094 38.687 0.997 41.812-8.614 4.18-18.594 8.579-28.965 11.86-19.102 6.035-46.543 8.75-65.52 10.215-2.39 14.937-0.789 7.011-4.949 22.129 16.875 9.316 40.945 23.203 55.84 36.796 8.262 7.539 15.43 15.211 21.523 22.813-5.312 13.184-11.465 25.937-18.496 38.125-9.59-0.352-19.785-1.43-30.539-3.418-19.695-3.652-45.183-14.16-62.625-21.762-9.121 12.055-3.965 5.824-14.766 17.207 10.547 16.157 25.274 39.707 32.032 58.735 3.75 10.507 5.968 19.648 7.754 29.199-8.836 7.441-18.106 14.355-27.774 20.762l-65.469-113.26c7.032-5.156 13.77-10.844 20.059-17.129 32.344-32.348 50.156-75.332 50.156-121.06 0-45.742-17.812-88.726-50.156-121.07-32.324-32.344-75.332-50.137-121.06-50.137-24.238 0-47.675 5.063-69.211 14.59l-65.906-114.14c10.098-5.04 20.449-9.551 31.133-13.477 6.562 6.07 13.105 12.984 19.512 20.777 12.734 15.453 25.566 39.946 34.023 56.977 14.746-3.379 6.797-1.914 22.383-3.711 2.312-19.145 6.133-46.699 13.164-65.606 3.652-9.804 7.773-20.078 12.188-28.144 0.898 0 30.351 0.977 43.789 2.793 3.007 8.57 5.605 19.219 7.656 29.312 4.004 19.614 3.847 47.25 3.301 66.25 14.609 3.965 6.894 1.504 21.504 7.27 11.035-15.844 27.343-38.359 42.429-51.738 8-7.114 16.887-13.657 24.738-18.774 12.872 6.723 25.215 14.297 36.922 22.754-1.355 9.184-4.351 19.301-7.351 29.375-5.664 19.223-18.77 43.496-28.164 60.063 11.035 10.332 5.371 4.55 15.566 16.48 17.188-8.785 42.129-21.012 61.738-25.762 10.664-2.554 21.68-4.625 31.204-5.425 8.054 11.757 15.308 24.082 21.668 36.929-5.586 7.621-13.028 15.785-20.567 23.457-14.023 14.297-36.992 29.59-53.066 39.789 4.902 14.317 2.605 6.543 6.015 21.875 19.297 0.293 47.051 1.231 66.602 6.25" fill="#125a9e"/>
  </g>
 </g>
 <path d="m2.3028 24.989 8.1472-8.1472-0.38791-0.12012c-0.24278-0.07505-0.4284-0.27178-0.48942-0.51843-0.06102-0.24664 0.01152-0.50719 0.19118-0.68689l3.7662-3.7662c0.13608-0.13607 0.32036-0.21244 0.51275-0.21244 0.19226 0 0.37679 0.07641 0.51274 0.21244l0.49317 0.49318 10.392-10.393c0.13595-0.13607 0.32036-0.21245 0.51262-0.21245s0.3768 0.07641 0.51275 0.21245l6.1336 6.1338c8.48e-4 8.38e-4 0.0017 0.0017 0.0027 0.0028 8.49e-4 9e-4 0.0017 0.0017 0.0028 0.0028l6.1337 6.1337c0.28314 0.28314 0.28314 0.74223 0 1.0253l-5.4505 5.4505c-8.48e-4 8.48e-4 -9.02e-4 0.0017-0.0017 0.0028-7.22e-4 8.49e-4 -0.0017 9.04e-4 -0.0028 0.0017l-4.9376 4.9376 0.49317 0.49317c0.28314 0.28314 0.28314 0.74222 0 1.0252l-3.7659 3.7663c-0.13764 0.13776-0.32278 0.21244-0.51274 0.21244-0.05803 0-0.1165-0.0072-0.17414-0.02127-0.24664-0.06101-0.44338-0.24676-0.51854-0.48942l-0.12011-0.38804-8.1471 8.1472c-0.13608 0.13607-0.32036 0.21245-0.51275 0.21245-0.19226 0-0.37679-0.07638-0.51274-0.21245l-12.273-12.273c-0.28302-0.2829-0.28302-0.74199 1.213e-4 -1.0251zm18.882-6.6094 4.4273-4.4273-5.1108-5.111-4.4272 4.4273zm4.769-14.991-4.4273 4.4274 5.1109 5.111 4.4273-4.4273zm6.1363 6.1365-4.4274 4.4274 5.1111 5.1112 4.4273-4.4274zm-0.34151 10.564-5.1111-5.1112-4.4273 4.4274 5.111 5.1113zm-4.447 6.4586-0.49304-0.49305-1.26e-4 -1.19e-4c-1.18e-4 0-1.18e-4 -1.25e-4 -1.18e-4 -1.25e-4l-6.1347-6.1351c-4.78e-4 -4.77e-4 -9.02e-4 -8.37e-4 -0.0017-0.0017-4.78e-4 -6.13e-4 -8.46e-4 -9.01e-4 -0.0017-0.0017l-6.6275-6.6279-2.4036 2.4036 4.3057 1.3327c0.22864 0.07074 0.40762 0.24967 0.47831 0.47819l1.575 5.0891 5.089 1.575c0.22864 0.07074 0.40761 0.24967 0.47831 0.47831l1.3326 4.3059zm-12.213 10.202 8.1752-8.1752-0.97026-3.1351-5.089-1.575c-0.22864-0.07074-0.40749-0.24966-0.4783-0.4783l-1.575-5.089-3.1347-0.97014-8.1752 8.1752z" stroke-width=".12084"/>
</svg>
