<?xml version="1.0" encoding="utf-8"?>
<!-- Generator: Adobe Illustrator 23.0.6, SVG Export Plug-In . SVG Version: 6.00 Build 0)  -->
<svg version="1.1" id="Layer_1" xmlns="http://www.w3.org/2000/svg" xmlns:xlink="http://www.w3.org/1999/xlink" x="0px" y="0px"
	 viewBox="0 0 50 50" style="enable-background:new 0 0 50 50;" xml:space="preserve">
<style type="text/css">
	.st0{fill-rule:evenodd;clip-rule:evenodd;fill:#CCEE66;}
	.st1{fill-rule:evenodd;clip-rule:evenodd;fill:#77BB11;}
	.st2{fill-rule:evenodd;clip-rule:evenodd;fill:#225511;}
	.st3{fill:#FFCB05;}
	.st4{fill:none;}
</style>
<g>
	<path id="Ellipse_2_copy_7_1_" class="st0" d="M30.29,1.51c13.09,8.81,17.67,19.55,17.67,29.29s-7.92,17.67-17.67,17.67
		S12.62,40.55,12.62,30.8C12.68,21.06,16.73,9.96,30.29,1.51z"/>
	<path id="Ellipse_2_copy_9_1_" class="st1" d="M12.57,6.85c15.73-1,25.89,4.81,31.82,12.5c5.93,7.75,4.4,18.84-3.35,24.71
		c-7.69,5.87-18.73,4.4-24.65-3.23C10.51,33.15,6.93,21.88,12.57,6.85z"/>
	<path id="Ellipse_2_copy_8_1_" class="st2" d="M2,23.23c11.86-10.39,23.48-11.98,32.87-9.45s15.03,12.21,12.5,21.6
		s-12.21,15.03-21.6,12.5l0,0C16.32,45.36,6.7,38.55,2,23.23z"/>
	<g>
		<polygon class="st3" points="30.32,15.76 29.84,17.26 28.26,17.26 29.54,18.19 29.05,19.69 30.32,18.76 31.6,19.69 31.11,18.19 
			32.39,17.26 30.81,17.26 		"/>
		<polygon class="st3" points="30.81,43.28 30.32,41.78 29.84,43.28 28.26,43.28 29.54,44.2 29.05,45.7 30.32,44.78 31.6,45.7 
			31.11,44.2 32.39,43.28 		"/>
		<polygon class="st3" points="17.32,31.77 18.59,32.69 18.1,31.2 19.38,30.27 17.8,30.27 17.32,28.77 16.83,30.27 15.25,30.27 
			16.53,31.2 16.04,32.69 		"/>
		<polygon class="st3" points="23.82,17.51 23.33,19 21.76,19 23.03,19.93 22.55,21.43 23.82,20.5 25.09,21.43 24.61,19.93 
			25.88,19 24.31,19 		"/>
		<polygon class="st3" points="19.06,22.27 18.57,23.77 17,23.77 18.27,24.69 17.78,26.19 19.06,25.26 20.33,26.19 19.85,24.69 
			21.12,23.77 19.54,23.77 		"/>
		<polygon class="st3" points="19.54,36.77 19.06,35.28 18.57,36.77 17,36.77 18.27,37.7 17.78,39.2 19.06,38.27 20.33,39.2 
			19.85,37.7 21.12,36.77 		"/>
		<polygon class="st3" points="24.31,41.53 23.82,40.04 23.33,41.53 21.76,41.53 23.03,42.46 22.55,43.96 23.82,43.03 25.09,43.96 
			24.61,42.46 25.88,41.53 		"/>
		<polygon class="st3" points="45.39,30.27 43.82,30.27 43.33,28.77 42.84,30.27 41.27,30.27 42.54,31.2 42.06,32.69 43.33,31.77 
			44.61,32.69 44.12,31.2 		"/>
		<polygon class="st3" points="36.83,17.51 36.34,19 34.77,19 36.04,19.93 35.55,21.43 36.83,20.5 38.1,21.43 37.61,19.93 38.89,19 
			37.31,19 		"/>
		<polygon class="st3" points="40.8,24.69 40.31,26.19 41.59,25.26 42.86,26.19 42.38,24.69 43.65,23.77 42.08,23.77 41.59,22.27 
			41.1,23.77 39.53,23.77 		"/>
		<polygon class="st3" points="42.08,36.77 41.59,35.28 41.1,36.77 39.53,36.77 40.8,37.7 40.31,39.2 41.59,38.27 42.86,39.2 
			42.38,37.7 43.65,36.77 		"/>
		<polygon class="st3" points="37.31,41.53 36.83,40.04 36.34,41.53 34.77,41.53 36.04,42.46 35.55,43.96 36.83,43.03 38.1,43.96 
			37.61,42.46 38.89,41.53 		"/>
	</g>
</g>
<rect class="st4" width="50" height="50"/>
</svg>
