<svg xmlns="http://www.w3.org/2000/svg" viewBox="0 0 79.37 79.37"><defs><style>.cls-1{isolation:isolate;}.cls-2{fill:#40beb0;}.cls-3{fill:#09a5de;mix-blend-mode:multiply;}</style></defs><title>icons-masterfilefinal</title><g class="cls-1"><g id="Layer_1" data-name="Layer 1"><path class="cls-2" d="M53.81,54.66H65.26a2,2,0,0,0,2-2.13A31.42,31.42,0,0,0,64,40.38a1,1,0,0,0-1.71-.14L53,53.08A1,1,0,0,0,53.81,54.66Z"/><path class="cls-2" d="M59.11,34.86a1,1,0,0,0,0-1.38,27,27,0,0,0-19.82-8.81c-14.8,0-26.91,12.3-27.93,27.87a2,2,0,0,0,2,2.13H38.9a1,1,0,0,0,.71-.29Z"/><path class="cls-3" d="M45.66,55.66H39.21a.88.88,0,0,1-.88-.88V48.34a2.63,2.63,0,0,1,1.09-2.13L64.93,27.84a.88.88,0,0,1,1.22,1.22L47.79,54.57A2.63,2.63,0,0,1,45.66,55.66Z"/></g></g></svg>